:SAMPLES-PER-SECOND 30
:FULLY-SPECIFIED
:DEGREES
279
root  -56.6478 40.0227 -8.60276 -2.00572 -0.630389 2.35548
RightUpLeg  -3.66966 -21.1706 -18.141
RightLeg  9.90864 -24.2776 1.73217
RightFoot  4.31867 -0.605317 4.61016
RightToes  4.6566e-010 0 -3.6325e-017
Spine  9.56237 -4.10074 -2.81876
Spine1  11.9328 -5.76891 4.44203
HEad  -19.8579 39.4948 -22.9066
LeftShoulder1  0.165529 3.0568 -31.0392
LeftArm  -2.29587 -14.5712 -40.8897
LeftForeArm  21.223 -72.9293 -38.988
LeftHand  0.00591584 4.06238 -2.676
RightShoulder  -0.566531 -5.17207 27.1841
RightArm  -12.5825 -28.8774 27.2204
RightForeArm  105.448 71.5397 141.746
RightHand  -0.209416 4.35727 -2.77903
LeftUpLeg  -6.79337 23.3912 8.88297
LeftLeg  15.972 16.5927 5.09633
LeftFoot  -2.98452 -0.0240703 0.564781
LeftToes  -4.59298e-010 2.08438e-011 -1.27151e-011
280
root  -55.7964 39.9121 -8.83183 -1.59184 4.72279 1.92803
RightUpLeg  -1.69996 -21.2333 -19.8862
RightLeg  8.71911 -28.8413 1.66788
RightFoot  5.22501 -0.852562 6.09656
RightToes  4.6566e-010 0 -3.6325e-017
Spine  9.17616 -3.87995 -3.60724
Spine1  11.8737 -6.02365 5.90812
HEad  -21.2188 41.0618 -23.028
LeftShoulder1  0.0865738 3.2795 -32.3386
LeftArm  -2.08359 -13.0082 -40.8962
LeftForeArm  22.4661 -73.2131 -39.7136
LeftHand  0.0250719 3.51676 -2.79119
RightShoulder  -0.535406 -5.10545 26.6373
RightArm  -12.4405 -29.8699 27.0286
RightForeArm  105.519 71.8648 141.004
RightHand  -0.203515 4.181 -2.73883
LeftUpLeg  -7.71697 30.6476 8.61033
LeftLeg  18.4754 20.6542 7.63402
LeftFoot  -3.49206 0.128514 -1.56774
LeftToes  -4.59298e-010 2.08438e-011 -1.27151e-011
281
root  -54.8229 39.7832 -8.99635 -0.916518 10.5405 2.05394
RightUpLeg  0.604777 -22.4515 -22.6156
RightLeg  7.7668 -32.0969 1.95833
RightFoot  5.63032 -1.08155 7.49765
RightToes  4.6566e-010 0 -3.6325e-017
Spine  8.50702 -3.88746 -4.1268
Spine1  11.4638 -6.05155 5.90314
HEad  -21.5805 42.4939 -21.9688
LeftShoulder1  0.110375 3.21541 -32.2004
LeftArm  -1.4865 -11.0979 -41.4026
LeftForeArm  23.4631 -73.3269 -39.8942
LeftHand  0.0469876 2.50326 -2.60438
RightShoulder  -0.640878 -5.38917 27.2708
RightArm  -12.71 -31.2121 26.2713
RightForeArm  106.393 72.1323 140.487
RightHand  -0.0770407 4.0696 -1.21195
LeftUpLeg  -9.25607 35.4438 6.41981
LeftLeg  19.9847 20.2735 8.27181
LeftFoot  -3.95977 0.135355 -1.75103
LeftToes  -4.59298e-010 2.08438e-011 -1.27151e-011
282
root  -53.7489 39.6631 -9.12483 -0.413364 16.4182 2.8694
RightUpLeg  3.03378 -23.6388 -25.8225
RightLeg  7.36657 -32.0149 1.41053
RightFoot  4.48809 -1.27866 9.42627
RightToes  4.6566e-010 0 -3.6325e-017
Spine  7.74732 -3.71763 -5.5334
Spine1  11.7591 -6.06893 6.13086
HEad  -22.49 42.8741 -21.6607
LeftShoulder1  0.211539 2.95007 -32.0964
LeftArm  -0.780065 -9.60021 -42.4297
LeftForeArm  23.4433 -73.4139 -40.2338
LeftHand  0.00798573 2.40309 -0.831806
RightShoulder  -0.746949 -5.67687 27.7366
RightArm  -13.4047 -32.7004 25.4033
RightForeArm  107.237 71.9658 140.998
RightHand  0.00441182 3.88525 -0.215325
LeftUpLeg  -10.6689 37.4696 3.03141
LeftLeg  19.6802 14.6877 5.99734
LeftFoot  -4.17075 0.0377069 -0.176249
LeftToes  -4.59298e-010 2.08438e-011 -1.27151e-011
283
root  -52.6283 39.4862 -9.26809 0.160594 21.8744 3.14276
RightUpLeg  3.77984 -22.7635 -26.9241
RightLeg  7.91573 -25.6373 -0.384376
RightFoot  0.668702 -1.12367 10.7727
RightToes  4.6566e-010 0 -3.6325e-017
Spine  7.29688 -3.80423 -5.50294
Spine1  11.5187 -6.06223 5.77404
HEad  -23.1086 43.2134 -21.5601
LeftShoulder1  0.18386 3.02569 -32.3432
LeftArm  -0.613553 -7.81744 -42.723
LeftForeArm  25.9561 -73.9364 -41.677
LeftHand  0.0311659 2.69901 -2.03395
RightShoulder  -0.713342 -5.57843 27.7112
RightArm  -13.8033 -33.854 25.0901
RightForeArm  107.355 72.1206 140.647
RightHand  0.0350874 4.07034 0.163154
LeftUpLeg  -12.7766 35.3583 -0.00195896
LeftLeg  21.6899 11.6673 5.40856
LeftFoot  -6.58613 -7.05835e-006 0.987862
LeftToes  -4.59298e-010 2.08438e-011 -1.27151e-011
284
root  -51.5402 39.3629 -9.41932 0.172575 27.529 3.51123
RightUpLeg  4.03425 -18.8566 -26.5315
RightLeg  8.77911 -15.5761 -2.57074
RightFoot  -4.20946 -0.650245 9.47191
RightToes  4.6566e-010 0 -3.6325e-017
Spine  7.50917 -3.76691 -5.6101
Spine1  11.4431 -5.99727 5.32533
HEad  -23.24 42.2283 -20.9584
LeftShoulder1  0.195612 2.99578 -32.4041
LeftArm  -0.0872725 -6.64385 -43.1837
LeftForeArm  26.9978 -74.2344 -42.6799
LeftHand  0.0465371 2.66595 -2.66453
RightShoulder  -0.799293 -5.79207 28.3162
RightArm  -14.4598 -34.2484 24.3084
RightForeArm  106.708 72.4202 139.827
RightHand  0.0734017 4.0303 0.641082
LeftUpLeg  -13.217 30.2145 -2.43558
LeftLeg  23.0475 11.5058 5.65767
LeftFoot  -8.29929 -0.0250345 2.7842
LeftToes  -4.59298e-010 2.08438e-011 -1.27151e-011
285
root  -50.5188 39.3482 -9.54576 -0.225537 31.8263 4.06018
RightUpLeg  2.49793 -9.71697 -24.8526
RightLeg  12.4664 -6.58148 -3.4205
RightFoot  -7.62962 -0.138719 3.08371
RightToes  4.6566e-010 0 -3.6325e-017
Spine  7.90857 -3.19692 -6.00804
Spine1  11.859 -5.49139 5.06891
HEad  -23.0723 41.0332 -20.4435
LeftShoulder1  0.177762 3.04724 -32.8171
LeftArm  0.0419205 -6.1129 -43.2499
LeftForeArm  27.4036 -74.2309 -42.5548
LeftHand  0.0610436 2.57104 -3.14282
RightShoulder  -0.783917 -5.75136 28.2481
RightArm  -14.5487 -33.6441 24.2415
RightForeArm  104.535 73.0301 137.916
RightHand  0.0259529 4.3887 0.0249845
LeftUpLeg  -11.6987 26.5019 -4.21998
LeftLeg  22.7653 11.4891 5.58007
LeftFoot  -9.44687 -0.0116823 4.13457
LeftToes  -4.59298e-010 2.08438e-011 -1.27151e-011
